#!OML:ASF F:\VICON\USERDATA\INSTALL\rory3\rory3.ASF
:FULLY-SPECIFIED
:DEGREES
174
root -0.0192 18.4353 -37.0661 3.38371 0.118 -6.66258
lowerback 14.941 0.735712 6.99293
upperback 1.44302 2.13241 0.111977
thorax -6.59444 0.848487 -4.26975
lowerneck -6.53163 -0.524186 -0.452081
upperneck -9.14238 -0.63787 0.529247
head -1.74725 -0.307412 0.236714
rclavicle 7.65321e-015 -2.10712e-014
rhumerus -26.9082 19.1234 -89.4379
rradius 107.042
rwrist -5.26262
rhand -37.1781 36.9543
rfingers 7.12502
rthumb -10.2465 7.2239
lclavicle 7.65321e-015 -2.10712e-014
lhumerus -56.9931 -4.3227 92.968
lradius 107.877
lwrist 25.6381
lhand -34.4428 10.7162
lfingers 7.12502
lthumb -7.60699 40.5594
rfemur 14.1718 3.80619 33.8396
rtibia 58.8004
rfoot 34.5088 -16.2238
rtoes 20.5488
lfemur -32.718 -0.641763 -13.9289
ltibia 25.9553
lfoot 8.38081 -1.58011
ltoes -24.0087
175
root -0.0191 18.3446 -36.7819 3.33011 0.118 -5.86939
lowerback 14.9585 0.872995 5.74927
upperback 1.38512 2.09969 -0.0584092
thorax -6.70771 0.859319 -3.74398
lowerneck -6.04753 -0.505206 -0.497633
upperneck -9.06946 -0.601675 0.72883
head -1.80478 -0.29205 0.30808
rclavicle 1.13307e-014 9.14409e-015
rhumerus -28.1916 18.7371 -89.7407
rradius 105.726
rwrist -5.65132
rhand -37.0413 37.7014
rfingers 7.12502
rthumb -10.1145 7.96451
lclavicle 1.13307e-014 9.14409e-015
lhumerus -55.9066 -5.26564 93.2908
lradius 108.225
lwrist 25.9914
lhand -34.628 10.6612
lfingers 7.12502
lthumb -7.78576 40.4978
rfemur 12.0692 3.05512 32.2164
rtibia 64.0247
rfoot 33.9157 -17.1011
rtoes 22.2939
lfemur -31.4621 0.0924439 -15.1632
ltibia 26.1446
lfoot 9.11802 -2.71874
ltoes -22.9733
176
root -0.0191 18.2403 -36.4978 2.93725 0.118 -5.25211
lowerback 15.1972 0.873215 4.76655
upperback 1.50698 1.94007 -0.145926
thorax -6.75481 0.808666 -3.255
lowerneck -5.86574 -0.425683 -0.512674
upperneck -8.77023 -0.497189 0.740204
head -1.73953 -0.240304 0.313838
rclavicle 3.18055e-015 3.26007e-014
rhumerus -29.099 18.7057 -89.9657
rradius 104.421
rwrist -6.03928
rhand -37.3962 37.5875
rfingers 7.12502
rthumb -10.4568 7.86755
lclavicle 3.18055e-015 3.26007e-014
lhumerus -54.4571 -6.19557 93.6779
lradius 108.536
lwrist 26.4967
lhand -33.8629 10.2784
lfingers 7.12502
lthumb -7.04725 40.141
rfemur 10.1979 2.084 30.6393
rtibia 69.0842
rfoot 33.0503 -17.1735
rtoes 24.115
lfemur -30.1522 0.877026 -16.2748
ltibia 26.8999
lfoot 9.59725 -5.02671
ltoes -16.3247
177
root -0.0191 18.1383 -36.2136 2.94569 0.118 -4.40463
lowerback 14.8119 0.707507 3.84754
upperback 1.54487 1.53803 -0.317831
thorax -6.55549 0.642319 -2.82543
lowerneck -5.80034 -0.272635 -0.503567
upperneck -8.32555 -0.29926 0.686969
head -1.60914 -0.141421 0.294949
rclavicle 5.86415e-015 1.51076e-014
rhumerus -30.1581 18.7853 -90.2844
rradius 103.181
rwrist -6.06949
rhand -37.9767 35.8675
rfingers 7.12502
rthumb -11.0168 6.17658
lclavicle 5.86415e-015 1.51076e-014
lhumerus -53.0657 -7.0467 94.0539
lradius 109.107
lwrist 27.0477
lhand -32.4443 9.8188
lfingers 7.12502
lthumb -5.67775 39.7227
rfemur 7.89377 0.803221 28.5704
rtibia 73.9279
rfoot 32.2105 -16.5667
rtoes 23.6293
lfemur -29.535 1.30899 -17.7337
ltibia 28.4032
lfoot 7.63918 -9.65336
ltoes -11.621
178
root -0.019 18.0349 -35.9294 2.48119 0.118 -3.66046
lowerback 15.147 0.619014 3.0299
upperback 1.61802 1.28193 -0.535419
thorax -6.69469 0.534483 -2.54958
lowerneck -5.75859 -0.114493 -0.499389
upperneck -7.79951 -0.0824735 0.863321
head -1.45011 -0.0356236 0.348094
rclavicle -1.59028e-014 -1.59028e-014
rhumerus -31.6702 18.4301 -90.6775
rradius 102.03
rwrist -5.83249
rhand -37.8306 35.2301
rfingers 7.12502
rthumb -10.8759 5.53172
lclavicle -1.59028e-014 -1.59028e-014
lhumerus -51.7589 -8.04524 94.3073
lradius 109.882
lwrist 27.4858
lhand -32.0525 10.8429
lfingers 7.12502
lthumb -5.29939 40.7567
rfemur 6.15001 -0.160356 26.6931
rtibia 78.4745
rfoot 31.3131 -15.641
rtoes 23.0886
lfemur -28.3026 1.67983 -18.8397
ltibia 30.5157
lfoot 4.39417 -12.0045
ltoes -7.28725
179
root -0.019 18.0056 -35.6452 4.50125 0.118 -5.29441
lowerback 16.6573 0.623915 2.31726
upperback 1.63997 1.27324 0.345768
thorax -7.54311 0.547018 -1.23472
lowerneck -1.8004 0.193585 -0.370682
upperneck -11.6206 0.265701 0.0867618
head -3.4216 0.146142 0.0856841
rclavicle 3.47873e-015 -5.56597e-015
rhumerus -42.1828 17.6745 -91.1278
rradius 92.5313
rwrist -1.77244
rhand -33.3092 33.9905
rfingers 7.12502
rthumb -6.51271 4.11061
lclavicle 3.47873e-015 -5.56597e-015
lhumerus -51.135 -8.92592 93.2776
lradius 108.917
lwrist 26.7636
lhand -38.9671 8.85134
lfingers 7.12502
lthumb -11.9719 38.489
rfemur 5.71516 3.32559 29.9687
rtibia 77.1329
rfoot 27.3464 -11.6067
rtoes 20.1413
lfemur -29.6167 2.8784 -17.5846
ltibia 29.7365
lfoot 0.676798 -4.79072
ltoes -8.79407
180
root -0.019 17.8811 -35.361 4.07177 0.118 -4.88041
lowerback 17.0795 0.282084 1.9242
upperback 1.75822 0.752955 0.268076
thorax -7.67094 0.30618 -0.980861
lowerneck -1.92248 0.206817 -0.467365
upperneck -11.469 0.293671 0.211124
head -3.34657 0.159302 0.142233
rclavicle 3.67752e-015 -7.95139e-016
rhumerus -42.567 16.6637 -90.6368
rradius 90.5893
rwrist -1.41066
rhand -33.5863 33.5751
rfingers 7.12502
rthumb -6.78017 3.70364
lclavicle 3.67752e-015 -7.95139e-016
lhumerus -49.179 -9.75544 93.1682
lradius 109.325
lwrist 27.0304
lhand -39.4585 7.93152
lfingers 7.12502
lthumb -12.4457 37.541
rfemur 3.47705 1.58365 28.8404
rtibia 82.0504
rfoot 25.903 -12.3041
rtoes 21.2449
lfemur -29.0228 2.612 -18.3304
ltibia 33.1982
lfoot -2.91904 -4.92093
ltoes -6.66204
181
root -0.0189 17.7574 -35.0768 3.55381 0.0506 -4.40369
lowerback 17.1766 -0.260743 1.88678
upperback 2.18061 0.00982433 0.0343028
thorax -7.28958 -0.0479967 -1.03734
lowerneck -2.21714 0.285124 -0.460451
upperneck -11.5577 0.416179 0.38525
head -3.32363 0.21388 0.195091
rclavicle 3.77691e-015 4.37326e-015
rhumerus -42.6273 15.5789 -90.1874
rradius 88.7385
rwrist -0.831343
rhand -33.5127 33.1437
rfingers 7.12502
rthumb -6.70917 3.26995
lclavicle 3.77691e-015 4.37326e-015
lhumerus -46.6781 -10.54 92.7746
lradius 109.777
lwrist 27.2326
lhand -39.6488 7.4452
lfingers 7.12502
lthumb -12.6292 37.0434
rfemur 1.37073 -0.315504 27.5221
rtibia 86.6765
rfoot 24.1484 -12.5916
rtoes 22.0385
lfemur -28.3044 1.81241 -19.0951
ltibia 36.0057
lfoot -5.72895 -5.07891
ltoes -3.26119
182
root -0.0189 17.6372 -34.7798 3.01921 0.0506 -3.99589
lowerback 17.6729 -0.675432 1.70608
upperback 2.34869 -0.57619 -0.165697
thorax -7.39847 -0.328233 -1.01115
lowerneck -1.66432 0.448289 -0.450584
upperneck -12.0528 0.648023 0.51764
head -3.60234 0.322867 0.230531
rclavicle 3.97569e-016 1.51076e-014
rhumerus -43.2934 14.323 -89.8424
rradius 87.2076
rwrist -0.291249
rhand -33.2099 34.151
rfingers 7.12502
rthumb -6.41687 4.26822
lclavicle 3.97569e-016 1.51076e-014
lhumerus -44.5141 -11.1085 92.3248
lradius 110.408
lwrist 27.3831
lhand -38.7269 6.89012
lfingers 7.12502
lthumb -11.7403 36.5411
rfemur -0.853773 -1.76809 26.3215
rtibia 91.1207
rfoot 22.534 -12.2734
rtoes 22.3237
lfemur -27.7477 1.23012 -19.7808
ltibia 38.497
lfoot -8.22889 -4.53007
ltoes -4.00272
